{
    "asset" : {
        "generator" : "Khronos glTF Blender I/O v3.3.27",
        "version" : "2.0"
    },
    "scene" : 0,
    "scenes" : [
        {
            "name" : "Scene",
            "nodes" : [
                0,
                1
            ]
        }
    ],
    "nodes" : [
        {
            "mesh" : 0,
            "name" : "Planet.003",
            "rotation" : [
                0,
                -0.21098774671554565,
                -0.7750571370124817,
                0.5956263542175293
            ]
        },
        {
            "mesh" : 1,
            "name" : "Clouds.002",
            "rotation" : [
                0,
                -0.21098771691322327,
                -0.7750570774078369,
                0.5956262946128845
            ],
            "scale" : [
                1.004220962524414,
                1.0042210817337036,
                1.004220962524414
            ]
        }
    ],
    "materials" : [
        {
            "doubleSided" : true,
            "name" : "Planet Material.003",
            "pbrMetallicRoughness" : {
                "metallicFactor" : 0
            }
        },
        {
            "alphaMode" : "BLEND",
            "doubleSided" : true,
            "name" : "Clouds Material.001",
            "pbrMetallicRoughness" : {
                "baseColorFactor" : [
                    0.6524515748023987,
                    0.4454168379306793,
                    0.8000000715255737,
                    1
                ],
                "metallicFactor" : 0,
                "roughnessFactor" : 0.5
            }
        }
    ],
    "meshes" : [
        {
            "name" : "Icosphere.004",
            "primitives" : [
                {
                    "attributes" : {
                        "POSITION" : 0,
                        "NORMAL" : 1,
                        "TEXCOORD_0" : 2
                    },
                    "indices" : 3,
                    "material" : 0
                }
            ]
        },
        {
            "name" : "Icosphere.005",
            "primitives" : [
                {
                    "attributes" : {
                        "POSITION" : 4,
                        "NORMAL" : 5,
                        "TEXCOORD_0" : 6
                    },
                    "indices" : 3,
                    "material" : 1
                }
            ]
        }
    ],
    "accessors" : [
        {
            "bufferView" : 0,
            "componentType" : 5126,
            "count" : 10593,
            "max" : [
                1,
                1,
                0.9999999403953552
            ],
            "min" : [
                -0.9999999403953552,
                -1,
                -0.9999999403953552
            ],
            "type" : "VEC3"
        },
        {
            "bufferView" : 1,
            "componentType" : 5126,
            "count" : 10593,
            "type" : "VEC3"
        },
        {
            "bufferView" : 2,
            "componentType" : 5126,
            "count" : 10593,
            "type" : "VEC2"
        },
        {
            "bufferView" : 3,
            "componentType" : 5123,
            "count" : 61440,
            "type" : "SCALAR"
        },
        {
            "bufferView" : 4,
            "componentType" : 5126,
            "count" : 10593,
            "max" : [
                1,
                1,
                0.9999999403953552
            ],
            "min" : [
                -0.9999999403953552,
                -1,
                -0.9999999403953552
            ],
            "type" : "VEC3"
        },
        {
            "bufferView" : 5,
            "componentType" : 5126,
            "count" : 10593,
            "type" : "VEC3"
        },
        {
            "bufferView" : 6,
            "componentType" : 5126,
            "count" : 10593,
            "type" : "VEC2"
        }
    ],
    "bufferViews" : [
        {
            "buffer" : 0,
            "byteLength" : 127116,
            "byteOffset" : 0,
            "target" : 34962
        },
        {
            "buffer" : 0,
            "byteLength" : 127116,
            "byteOffset" : 127116,
            "target" : 34962
        },
        {
            "buffer" : 0,
            "byteLength" : 84744,
            "byteOffset" : 254232,
            "target" : 34962
        },
        {
            "buffer" : 0,
            "byteLength" : 122880,
            "byteOffset" : 338976,
            "target" : 34963
        },
        {
            "buffer" : 0,
            "byteLength" : 127116,
            "byteOffset" : 461856,
            "target" : 34962
        },
        {
            "buffer" : 0,
            "byteLength" : 127116,
            "byteOffset" : 588972,
            "target" : 34962
        },
        {
            "buffer" : 0,
            "byteLength" : 84744,
            "byteOffset" : 716088,
            "target" : 34962
        }
    ],
    "buffers" : [
        {
            "byteLength" : 800832,
            "uri" : "data:application/octet-stream;base64,"
        }
    ]
}
